<?xml version="1.0" standalone="no"?>
<!DOCTYPE svg PUBLIC "-//W3C//DTD SVG 20010904//EN"
 "http://www.w3.org/TR/2001/REC-SVG-20010904/DTD/svg10.dtd">
<svg version="1.0" xmlns="http://www.w3.org/2000/svg"
 width="1696.000000pt" height="1696.000000pt" viewBox="0 0 1696.000000 1696.000000"
 preserveAspectRatio="xMidYMid meet">
<metadata>
Created by potrace 1.14, written by Peter Selinger 2001-2017
</metadata>
<g transform="translate(0.000000,1696.000000) scale(0.100000,-0.100000)"
fill="#000000" stroke="none">
<path d="M2200 12225 c0 -4 370 -999 419 -1128 l11 -28 53 30 c29 16 95 44
146 61 323 108 686 2 900 -262 250 -308 244 -757 -13 -1056 -111 -130 -279
-232 -439 -269 -70 -15 -78 -19 -73 -38 3 -11 144 -392 314 -847 l309 -827
-278 -1423 c-154 -782 -279 -1430 -279 -1440 0 -17 40 -18 835 -18 660 0 837
3 840 13 3 6 130 652 284 1434 l279 1422 59 78 c177 233 3073 4040 3165 4161
l109 142 -967 -2 -967 -3 -955 -1384 c-614 -889 -957 -1378 -962 -1370 -4 8
-209 632 -456 1387 l-448 1372 -943 0 c-519 0 -943 -2 -943 -5z"/>
<path d="M12055 12200 c-274 -19 -549 -61 -782 -120 -143 -36 -383 -111 -383
-120 0 -3 14 -14 31 -24 17 -10 61 -44 98 -75 l66 -57 55 14 c34 9 107 14 190
15 118 0 146 -4 223 -27 240 -72 416 -223 522 -449 49 -103 66 -176 72 -308 7
-156 -11 -246 -83 -414 -3 -7 36 -8 118 -2 149 11 423 -5 599 -34 334 -54 655
-172 996 -365 62 -35 117 -64 122 -64 7 0 791 1401 791 1414 0 11 -245 150
-372 211 -464 222 -936 348 -1483 395 -170 15 -626 20 -780 10z"/>
<path d="M9555 11178 c-692 -609 -1180 -1452 -1358 -2349 -20 -96 -38 -193
-41 -216 l-6 -42 92 44 c127 59 215 78 363 77 143 0 238 -22 356 -81 214 -107
365 -289 431 -518 19 -65 23 -102 23 -223 -1 -170 -13 -229 -81 -366 -80 -164
-205 -289 -369 -370 -128 -63 -221 -84 -370 -84 -149 0 -242 21 -370 84 -297
147 -470 449 -452 789 6 111 45 253 92 336 14 24 24 46 21 48 -2 2 -48 13
-102 25 -199 41 -408 4 -592 -103 -76 -45 -230 -199 -274 -274 -89 -154 -123
-292 -116 -470 4 -100 10 -136 37 -215 192 -570 897 -757 1339 -355 35 32 64
56 65 54 2 -2 13 -38 26 -79 79 -257 214 -536 372 -771 485 -722 1327 -1217
2294 -1348 236 -32 371 -41 645 -41 690 1 1268 132 1938 442 114 53 152 75
152 89 0 22 -221 1413 -225 1417 -1 2 -61 -22 -131 -52 -362 -153 -727 -257
-1099 -313 -172 -25 -620 -25 -790 1 -726 110 -1217 488 -1413 1086 -72 220
-101 403 -109 690 -8 307 22 538 103 807 155 514 466 966 871 1268 l121 90
-28 12 c-49 20 -143 84 -207 140 l-62 54 -82 -17 c-161 -32 -367 -5 -512 67
-255 128 -421 362 -458 644 -6 50 -12 91 -13 92 -1 1 -37 -30 -81 -69z"/>
<path d="M2250 10820 c-352 -42 -632 -290 -717 -637 -22 -91 -22 -275 0 -366
41 -165 120 -301 245 -419 171 -161 395 -236 641 -216 212 18 411 123 554 293
l58 70 -28 6 c-15 3 -57 12 -93 18 -239 46 -467 230 -574 463 -55 121 -71 195
-71 348 0 154 19 241 81 362 19 38 32 74 29 79 -7 10 -30 10 -125 -1z"/>
</g>
</svg>
